<svg width="55" height="45" viewBox="0 0 55 45" fill="none" xmlns="http://www.w3.org/2000/svg">
<path d="M29.0174 0V9.18246H15.4682C11.1962 10.0129 9.59681 13.9467 9.33113 15.8098C8.8848 21.3033 13.2365 23.7413 15.4682 24.2736H28.6189C33.4746 23.1558 34.5904 19.9619 34.9153 17.247V1.75664C39.0597 3.54523 41.5305 7.45243 42.2478 9.18246L52.609 7.10642C54.3305 6.91479 54.9203 8.09121 55 8.70337V24.7527C54.8087 26.3497 53.3263 26.4827 52.609 26.3497C49.1552 25.631 42.2478 24.2097 42.2478 24.2736C38.8047 31.428 31.7272 33.4295 28.6189 33.5359H24.3375V44.6188L16.225 33.5359H15.4682C9.01236 33.0568 5.58518 28.9846 5.50548 28.9846C-2.30525 21.6387 0.484296 12.8554 0.484296 12.7756C3.22602 3.00226 11.6159 0.186311 15.4682 0H29.0174Z" fill="#38A339"/>
<circle cx="8.23821" cy="8.23797" r="2.73797" fill="white"/>
<path d="M15.4 19V13.68H16.088V18.28H17.688V19H15.4ZM19.9076 20.704C19.6036 20.704 19.3209 20.6267 19.0596 20.472C18.8036 20.3173 18.5796 20.0933 18.3876 19.8L19.0116 19.44C19.1236 19.616 19.2569 19.7493 19.4116 19.84C19.5662 19.936 19.7316 19.984 19.9076 19.984C20.1902 19.984 20.4356 19.88 20.6436 19.672C20.7396 19.576 20.8116 19.464 20.8596 19.336C20.9129 19.208 20.9396 19.072 20.9396 18.928V18.648C20.8169 18.776 20.6622 18.88 20.4756 18.96C20.2889 19.0347 20.0996 19.072 19.9076 19.072C19.6729 19.072 19.4516 19.0293 19.2436 18.944C19.0356 18.8533 18.8516 18.728 18.6916 18.568C18.5262 18.408 18.3982 18.224 18.3076 18.016C18.2169 17.8027 18.1716 17.5787 18.1716 17.344V15H18.8756V17.296C18.8756 17.4827 18.9209 17.6587 19.0116 17.824C19.1076 17.984 19.2329 18.112 19.3876 18.208C19.5476 18.304 19.7209 18.352 19.9076 18.352C20.0942 18.352 20.2676 18.3067 20.4276 18.216C20.5876 18.12 20.7129 17.992 20.8036 17.832C20.8942 17.6667 20.9396 17.488 20.9396 17.296V15H21.6436V18.928C21.6436 19.168 21.5982 19.3973 21.5076 19.616C21.4222 19.8347 21.2996 20.024 21.1396 20.184C20.9742 20.3493 20.7849 20.4773 20.5716 20.568C20.3636 20.6587 20.1422 20.704 19.9076 20.704ZM24.6229 19H23.9429L22.3669 15H23.1269L24.2869 17.92L25.4389 15H26.1989L24.6229 19ZM27.1271 17.304C27.1271 17.432 27.1724 17.5653 27.2631 17.704C27.3591 17.8427 27.4684 17.96 27.5911 18.056C27.8151 18.232 28.0764 18.32 28.3751 18.32C28.8497 18.32 29.2364 18.0907 29.5351 17.632L30.1431 17.992C29.9351 18.328 29.6791 18.5867 29.3751 18.768C29.0711 18.9493 28.7377 19.04 28.3751 19.04C28.1031 19.04 27.8444 18.9893 27.5991 18.888C27.3537 18.7813 27.1377 18.6347 26.9511 18.448C26.7644 18.2613 26.6177 18.0453 26.5111 17.8C26.4097 17.5547 26.3591 17.296 26.3591 17.024C26.3591 16.752 26.4097 16.4933 26.5111 16.248C26.6177 15.9973 26.7644 15.7787 26.9511 15.592C27.1324 15.4053 27.3457 15.2613 27.5911 15.16C27.8417 15.0587 28.1031 15.008 28.3751 15.008C28.6471 15.008 28.9057 15.0587 29.1511 15.16C29.4017 15.2613 29.6177 15.4053 29.7991 15.592C30.1937 15.9973 30.3911 16.4667 30.3911 17C30.3911 17.096 30.3831 17.1973 30.3671 17.304H27.1271ZM28.3751 15.664C28.1564 15.664 27.9511 15.712 27.7591 15.808C27.5671 15.904 27.4124 16.032 27.2951 16.192C27.1831 16.3467 27.1271 16.512 27.1271 16.688H29.6231C29.6231 16.512 29.5644 16.3467 29.4471 16.192C29.3351 16.032 29.1831 15.904 28.9911 15.808C28.7991 15.712 28.5937 15.664 28.3751 15.664Z" fill="white"/>
<path d="M41.272 16.976C41.3787 17.04 41.448 17.1333 41.48 17.256C41.512 17.3787 41.496 17.4933 41.432 17.6C41.3093 17.808 41.1627 18 40.992 18.176C40.8213 18.3467 40.6293 18.4933 40.416 18.616C40.208 18.7387 39.984 18.8347 39.744 18.904C39.504 18.968 39.2533 19 38.992 19C38.6027 19 38.2347 18.928 37.888 18.784C37.5467 18.6347 37.248 18.432 36.992 18.176C36.736 17.92 36.5333 17.6213 36.384 17.28C36.24 16.9333 36.168 16.5653 36.168 16.176C36.168 15.7867 36.24 15.4213 36.384 15.08C36.5333 14.7333 36.736 14.432 36.992 14.176C37.248 13.92 37.5467 13.72 37.888 13.576C38.2347 13.4267 38.6027 13.352 38.992 13.352C39.2533 13.352 39.504 13.3867 39.744 13.456C39.984 13.52 40.208 13.6133 40.416 13.736C40.6293 13.8587 40.8213 14.008 40.992 14.184C41.1627 14.3547 41.3093 14.544 41.432 14.752C41.496 14.8587 41.512 14.9733 41.48 15.096C41.448 15.2187 41.3787 15.312 41.272 15.376C41.1653 15.44 41.048 15.456 40.92 15.424C40.7973 15.392 40.7067 15.32 40.648 15.208C40.4773 14.9253 40.2453 14.6987 39.952 14.528C39.664 14.352 39.344 14.264 38.992 14.264C38.7307 14.264 38.4827 14.3147 38.248 14.416C38.0133 14.5173 37.8107 14.6533 37.64 14.824C37.4693 14.9947 37.3333 15.1973 37.232 15.432C37.1307 15.6613 37.08 15.9093 37.08 16.176C37.08 16.4373 37.1307 16.6853 37.232 16.92C37.3333 17.1547 37.4693 17.3573 37.64 17.528C37.8107 17.6987 38.0133 17.8347 38.248 17.936C38.4827 18.0373 38.7307 18.088 38.992 18.088C39.344 18.088 39.664 18.0027 39.952 17.832C40.2453 17.656 40.4773 17.424 40.648 17.136C40.7067 17.0293 40.7973 16.96 40.92 16.928C41.048 16.896 41.1653 16.912 41.272 16.976ZM44.0782 14.96C44.3609 14.96 44.6249 15.0133 44.8702 15.12C45.1155 15.2267 45.3289 15.3707 45.5102 15.552C45.6915 15.7333 45.8355 15.9467 45.9422 16.192C46.0489 16.4373 46.1022 16.7013 46.1022 16.984V18.544C46.1022 18.6667 46.0569 18.7733 45.9662 18.864C45.8755 18.9547 45.7662 19 45.6382 19C45.5155 19 45.4089 18.9547 45.3182 18.864C45.2275 18.7733 45.1822 18.6667 45.1822 18.544V16.984C45.1822 16.8293 45.1529 16.6853 45.0942 16.552C45.0355 16.4187 44.9555 16.304 44.8542 16.208C44.7582 16.1067 44.6435 16.0267 44.5102 15.968C44.3769 15.9093 44.2329 15.88 44.0782 15.88C43.9289 15.88 43.7849 15.9093 43.6462 15.968C43.5129 16.0267 43.3955 16.1067 43.2942 16.208C43.1982 16.304 43.1209 16.4187 43.0622 16.552C43.0035 16.6853 42.9742 16.8293 42.9742 16.984V18.544C42.9742 18.6667 42.9289 18.7733 42.8382 18.864C42.7529 18.9547 42.6462 19 42.5182 19C42.3955 19 42.2889 18.9547 42.1982 18.864C42.1075 18.7733 42.0622 18.6667 42.0622 18.544V13.808C42.0622 13.68 42.1075 13.5733 42.1982 13.488C42.2889 13.3973 42.3955 13.352 42.5182 13.352C42.6462 13.352 42.7529 13.3973 42.8382 13.488C42.9289 13.5733 42.9742 13.68 42.9742 13.808V15.288C43.1342 15.1813 43.3075 15.1013 43.4942 15.048C43.6809 14.9893 43.8755 14.96 44.0782 14.96ZM48.5979 14.96C48.8805 14.96 49.1445 15.0133 49.3899 15.12C49.6352 15.2267 49.8485 15.3707 50.0299 15.552C50.2112 15.7333 50.3552 15.9467 50.4619 16.192C50.5685 16.4373 50.6219 16.7013 50.6219 16.984V18.544C50.6219 18.6667 50.5765 18.7733 50.4859 18.864C50.3952 18.9547 50.2859 19 50.1579 19C50.0512 19 49.9579 18.968 49.8779 18.904C49.7979 18.84 49.7445 18.76 49.7179 18.664C49.5579 18.7707 49.3819 18.8533 49.1899 18.912C49.0032 18.9707 48.8059 19 48.5979 19C48.3205 19 48.0592 18.9467 47.8139 18.84C47.5685 18.7333 47.3552 18.5893 47.1739 18.408C46.9925 18.2267 46.8485 18.0133 46.7419 17.768C46.6352 17.5227 46.5819 17.2613 46.5819 16.984C46.5819 16.7013 46.6352 16.4373 46.7419 16.192C46.8485 15.9467 46.9925 15.7333 47.1739 15.552C47.3552 15.3707 47.5685 15.2267 47.8139 15.12C48.0592 15.0133 48.3205 14.96 48.5979 14.96ZM48.5979 18.088C48.7525 18.088 48.8965 18.0587 49.0299 18C49.1632 17.9413 49.2779 17.864 49.3739 17.768C49.4752 17.6667 49.5552 17.5493 49.6139 17.416C49.6725 17.2773 49.7019 17.1333 49.7019 16.984C49.7019 16.8293 49.6725 16.6853 49.6139 16.552C49.5552 16.4187 49.4752 16.304 49.3739 16.208C49.2779 16.1067 49.1632 16.0267 49.0299 15.968C48.8965 15.9093 48.7525 15.88 48.5979 15.88C48.4485 15.88 48.3045 15.9093 48.1659 15.968C48.0325 16.0267 47.9152 16.1067 47.8139 16.208C47.7179 16.304 47.6405 16.4187 47.5819 16.552C47.5232 16.6853 47.4939 16.8293 47.4939 16.984C47.4939 17.1333 47.5232 17.2773 47.5819 17.416C47.6405 17.5493 47.7179 17.6667 47.8139 17.768C47.9152 17.864 48.0325 17.9413 48.1659 18C48.3045 18.0587 48.4485 18.088 48.5979 18.088ZM53.1111 18.048C53.2391 18.048 53.3458 18.0933 53.4311 18.184C53.5218 18.2747 53.5671 18.3813 53.5671 18.504C53.5671 18.632 53.5218 18.7413 53.4311 18.832C53.3458 18.9173 53.2391 18.96 53.1111 18.96H52.9111C52.7298 18.96 52.5591 18.9253 52.3991 18.856C52.2391 18.7867 52.0978 18.6933 51.9751 18.576C51.8578 18.4587 51.7645 18.32 51.6951 18.16C51.6258 18 51.5911 17.8293 51.5911 17.648V15.88H51.3191C51.1965 15.88 51.0898 15.8347 50.9991 15.744C50.9085 15.6533 50.8631 15.5467 50.8631 15.424C50.8631 15.296 50.9085 15.1867 50.9991 15.096C51.0898 15.0053 51.1965 14.96 51.3191 14.96H51.5911V13.808C51.5911 13.68 51.6365 13.5733 51.7271 13.488C51.8178 13.3973 51.9245 13.352 52.0471 13.352C52.1751 13.352 52.2845 13.3973 52.3751 13.488C52.4658 13.5733 52.5111 13.68 52.5111 13.808V14.96H53.1591C53.2871 14.96 53.3938 15.0053 53.4791 15.096C53.5698 15.1867 53.6151 15.296 53.6151 15.424C53.6151 15.5467 53.5698 15.6533 53.4791 15.744C53.3938 15.8347 53.2871 15.88 53.1591 15.88H52.5111V17.648C52.5111 17.76 52.5485 17.856 52.6231 17.936C52.7031 18.0107 52.7991 18.048 52.9111 18.048H53.1111Z" fill="black"/>
</svg>
