<svg width="175" height="142" viewBox="0 0 175 142" fill="none" xmlns="http://www.w3.org/2000/svg">
<path d="M92.3216 0V29.1788H49.2666C35.6917 31.8176 30.6094 44.318 29.7652 50.2383C28.3469 67.6949 42.1752 75.4421 49.2666 77.1336H91.0552C106.485 73.5814 110.031 63.4322 111.063 54.8055V5.58204C124.233 11.2656 132.084 23.6814 134.363 29.1788L167.288 22.5819C172.758 21.9729 174.633 25.7112 174.886 27.6565V78.656C174.278 83.7306 169.567 84.1535 167.288 83.7306C156.313 81.447 134.363 76.9306 134.363 77.1336C123.422 99.8677 100.933 106.228 91.0552 106.566H77.4505V141.784L51.6716 106.566H49.2666C28.7522 105.044 17.8618 92.1036 17.6085 92.1036C-7.21144 68.7606 1.65283 40.8504 1.65283 40.5966C10.3651 9.54021 37.0255 0.592034 49.2666 0H92.3216Z" fill="#38A339"/>
<circle cx="26.2912" cy="26.1775" r="8.70037" fill="white"/>
<path d="M50.2501 60V43.375H52.4001V57.75H57.4001V60H50.2501ZM64.3363 65.325C63.3863 65.325 62.5029 65.0833 61.6863 64.6C60.8863 64.1167 60.1863 63.4167 59.5863 62.5L61.5363 61.375C61.8863 61.925 62.3029 62.3417 62.7863 62.625C63.2696 62.925 63.7863 63.075 64.3363 63.075C65.2196 63.075 65.9863 62.75 66.6363 62.1C66.9363 61.8 67.1613 61.45 67.3113 61.05C67.4779 60.65 67.5613 60.225 67.5613 59.775V58.9C67.1779 59.3 66.6946 59.625 66.1113 59.875C65.5279 60.1083 64.9363 60.225 64.3363 60.225C63.6029 60.225 62.9113 60.0917 62.2613 59.825C61.6113 59.5417 61.0363 59.15 60.5363 58.65C60.0196 58.15 59.6196 57.575 59.3363 56.925C59.0529 56.2583 58.9113 55.5583 58.9113 54.825V47.5H61.1113V54.675C61.1113 55.2583 61.2529 55.8083 61.5363 56.325C61.8363 56.825 62.2279 57.225 62.7113 57.525C63.2113 57.825 63.7529 57.975 64.3363 57.975C64.9196 57.975 65.4613 57.8333 65.9613 57.55C66.4613 57.25 66.8529 56.85 67.1363 56.35C67.4196 55.8333 67.5613 55.275 67.5613 54.675V47.5H69.7613V59.775C69.7613 60.525 69.6196 61.2417 69.3363 61.925C69.0696 62.6083 68.6863 63.2 68.1863 63.7C67.6696 64.2167 67.0779 64.6167 66.4113 64.9C65.7613 65.1833 65.0696 65.325 64.3363 65.325ZM79.0716 60H76.9466L72.0216 47.5H74.3966L78.0216 56.625L81.6216 47.5H83.9966L79.0716 60ZM86.8972 54.7C86.8972 55.1 87.0389 55.5167 87.3222 55.95C87.6222 56.3833 87.9639 56.75 88.3472 57.05C89.0472 57.6 89.8639 57.875 90.7972 57.875C92.2805 57.875 93.4889 57.1583 94.4222 55.725L96.3222 56.85C95.6722 57.9 94.8722 58.7083 93.9222 59.275C92.9722 59.8417 91.9305 60.125 90.7972 60.125C89.9472 60.125 89.1389 59.9667 88.3722 59.65C87.6055 59.3167 86.9305 58.8583 86.3472 58.275C85.7639 57.6917 85.3055 57.0167 84.9722 56.25C84.6555 55.4833 84.4972 54.675 84.4972 53.825C84.4972 52.975 84.6555 52.1667 84.9722 51.4C85.3055 50.6167 85.7639 49.9333 86.3472 49.35C86.9139 48.7667 87.5805 48.3167 88.3472 48C89.1305 47.6833 89.9472 47.525 90.7972 47.525C91.6472 47.525 92.4555 47.6833 93.2222 48C94.0055 48.3167 94.6805 48.7667 95.2472 49.35C96.4805 50.6167 97.0972 52.0833 97.0972 53.75C97.0972 54.05 97.0722 54.3667 97.0222 54.7H86.8972ZM90.7972 49.575C90.1139 49.575 89.4722 49.725 88.8722 50.025C88.2722 50.325 87.7889 50.725 87.4222 51.225C87.0722 51.7083 86.8972 52.225 86.8972 52.775H94.6972C94.6972 52.225 94.5139 51.7083 94.1472 51.225C93.7972 50.725 93.3222 50.325 92.7222 50.025C92.1222 49.725 91.4805 49.575 90.7972 49.575Z" fill="white"/>
<path d="M130.475 55.675C130.808 55.875 131.025 56.1667 131.125 56.55C131.225 56.9333 131.175 57.2917 130.975 57.625C130.592 58.275 130.133 58.875 129.6 59.425C129.067 59.9583 128.467 60.4167 127.8 60.8C127.15 61.1833 126.45 61.4833 125.7 61.7C124.95 61.9 124.167 62 123.35 62C122.133 62 120.983 61.775 119.9 61.325C118.833 60.8583 117.9 60.225 117.1 59.425C116.3 58.625 115.667 57.6917 115.2 56.625C114.75 55.5417 114.525 54.3917 114.525 53.175C114.525 51.9583 114.75 50.8167 115.2 49.75C115.667 48.6667 116.3 47.725 117.1 46.925C117.9 46.125 118.833 45.5 119.9 45.05C120.983 44.5833 122.133 44.35 123.35 44.35C124.167 44.35 124.95 44.4583 125.7 44.675C126.45 44.875 127.15 45.1667 127.8 45.55C128.467 45.9333 129.067 46.4 129.6 46.95C130.133 47.4833 130.592 48.075 130.975 48.725C131.175 49.0583 131.225 49.4167 131.125 49.8C131.025 50.1833 130.808 50.475 130.475 50.675C130.142 50.875 129.775 50.925 129.375 50.825C128.992 50.725 128.708 50.5 128.525 50.15C127.992 49.2667 127.267 48.5583 126.35 48.025C125.45 47.475 124.45 47.2 123.35 47.2C122.533 47.2 121.758 47.3583 121.025 47.675C120.292 47.9917 119.658 48.4167 119.125 48.95C118.592 49.4833 118.167 50.1167 117.85 50.85C117.533 51.5667 117.375 52.3417 117.375 53.175C117.375 53.9917 117.533 54.7667 117.85 55.5C118.167 56.2333 118.592 56.8667 119.125 57.4C119.658 57.9333 120.292 58.3583 121.025 58.675C121.758 58.9917 122.533 59.15 123.35 59.15C124.45 59.15 125.45 58.8833 126.35 58.35C127.267 57.8 127.992 57.075 128.525 56.175C128.708 55.8417 128.992 55.625 129.375 55.525C129.775 55.425 130.142 55.475 130.475 55.675ZM139.244 49.375C140.128 49.375 140.953 49.5417 141.719 49.875C142.486 50.2083 143.153 50.6583 143.719 51.225C144.286 51.7917 144.736 52.4583 145.069 53.225C145.403 53.9917 145.569 54.8167 145.569 55.7V60.575C145.569 60.9583 145.428 61.2917 145.144 61.575C144.861 61.8583 144.519 62 144.119 62C143.736 62 143.403 61.8583 143.119 61.575C142.836 61.2917 142.694 60.9583 142.694 60.575V55.7C142.694 55.2167 142.603 54.7667 142.419 54.35C142.236 53.9333 141.986 53.575 141.669 53.275C141.369 52.9583 141.011 52.7083 140.594 52.525C140.178 52.3417 139.728 52.25 139.244 52.25C138.778 52.25 138.328 52.3417 137.894 52.525C137.478 52.7083 137.111 52.9583 136.794 53.275C136.494 53.575 136.253 53.9333 136.069 54.35C135.886 54.7667 135.794 55.2167 135.794 55.7V60.575C135.794 60.9583 135.653 61.2917 135.369 61.575C135.103 61.8583 134.769 62 134.369 62C133.986 62 133.653 61.8583 133.369 61.575C133.086 61.2917 132.944 60.9583 132.944 60.575V45.775C132.944 45.375 133.086 45.0417 133.369 44.775C133.653 44.4917 133.986 44.35 134.369 44.35C134.769 44.35 135.103 44.4917 135.369 44.775C135.653 45.0417 135.794 45.375 135.794 45.775V50.4C136.294 50.0667 136.836 49.8167 137.419 49.65C138.003 49.4667 138.611 49.375 139.244 49.375ZM153.368 49.375C154.252 49.375 155.077 49.5417 155.843 49.875C156.61 50.2083 157.277 50.6583 157.843 51.225C158.41 51.7917 158.86 52.4583 159.193 53.225C159.527 53.9917 159.693 54.8167 159.693 55.7V60.575C159.693 60.9583 159.552 61.2917 159.268 61.575C158.985 61.8583 158.643 62 158.243 62C157.91 62 157.618 61.9 157.368 61.7C157.118 61.5 156.952 61.25 156.868 60.95C156.368 61.2833 155.818 61.5417 155.218 61.725C154.635 61.9083 154.018 62 153.368 62C152.502 62 151.685 61.8333 150.918 61.5C150.152 61.1667 149.485 60.7167 148.918 60.15C148.352 59.5833 147.902 58.9167 147.568 58.15C147.235 57.3833 147.068 56.5667 147.068 55.7C147.068 54.8167 147.235 53.9917 147.568 53.225C147.902 52.4583 148.352 51.7917 148.918 51.225C149.485 50.6583 150.152 50.2083 150.918 49.875C151.685 49.5417 152.502 49.375 153.368 49.375ZM153.368 59.15C153.852 59.15 154.302 59.0583 154.718 58.875C155.135 58.6917 155.493 58.45 155.793 58.15C156.11 57.8333 156.36 57.4667 156.543 57.05C156.727 56.6167 156.818 56.1667 156.818 55.7C156.818 55.2167 156.727 54.7667 156.543 54.35C156.36 53.9333 156.11 53.575 155.793 53.275C155.493 52.9583 155.135 52.7083 154.718 52.525C154.302 52.3417 153.852 52.25 153.368 52.25C152.902 52.25 152.452 52.3417 152.018 52.525C151.602 52.7083 151.235 52.9583 150.918 53.275C150.618 53.575 150.377 53.9333 150.193 54.35C150.01 54.7667 149.918 55.2167 149.918 55.7C149.918 56.1667 150.01 56.6167 150.193 57.05C150.377 57.4667 150.618 57.8333 150.918 58.15C151.235 58.45 151.602 58.6917 152.018 58.875C152.452 59.0583 152.902 59.15 153.368 59.15ZM167.472 59.025C167.872 59.025 168.206 59.1667 168.472 59.45C168.756 59.7333 168.897 60.0667 168.897 60.45C168.897 60.85 168.756 61.1917 168.472 61.475C168.206 61.7417 167.872 61.875 167.472 61.875H166.847C166.281 61.875 165.747 61.7667 165.247 61.55C164.747 61.3333 164.306 61.0417 163.922 60.675C163.556 60.3083 163.264 59.875 163.047 59.375C162.831 58.875 162.722 58.3417 162.722 57.775V52.25H161.872C161.489 52.25 161.156 52.1083 160.872 51.825C160.589 51.5417 160.447 51.2083 160.447 50.825C160.447 50.425 160.589 50.0833 160.872 49.8C161.156 49.5167 161.489 49.375 161.872 49.375H162.722V45.775C162.722 45.375 162.864 45.0417 163.147 44.775C163.431 44.4917 163.764 44.35 164.147 44.35C164.547 44.35 164.889 44.4917 165.172 44.775C165.456 45.0417 165.597 45.375 165.597 45.775V49.375H167.622C168.022 49.375 168.356 49.5167 168.622 49.8C168.906 50.0833 169.047 50.425 169.047 50.825C169.047 51.2083 168.906 51.5417 168.622 51.825C168.356 52.1083 168.022 52.25 167.622 52.25H165.597V57.775C165.597 58.125 165.714 58.425 165.947 58.675C166.197 58.9083 166.497 59.025 166.847 59.025H167.472Z" fill="#121212"/>
</svg>
